<?xml version="1.0" encoding="UTF-8" standalone="no"?>
<svg
   xmlns:dc="http://purl.org/dc/elements/1.1/"
   xmlns:cc="http://creativecommons.org/ns#"
   xmlns:rdf="http://www.w3.org/1999/02/22-rdf-syntax-ns#"
   xmlns:svg="http://www.w3.org/2000/svg"
   xmlns="http://www.w3.org/2000/svg"
   xmlns:sodipodi="http://sodipodi.sourceforge.net/DTD/sodipodi-0.dtd"
   xmlns:inkscape="http://www.inkscape.org/namespaces/inkscape"
   version="1.1"
   id="svg2"
   xml:space="preserve"
   width="486.66666"
   height="324.33334"
   viewBox="0 0 486.66666 324.33334"
   sodipodi:docname="anime-seeklogo.com.eps"><metadata
     id="metadata8"><rdf:RDF><cc:Work
         rdf:about=""><dc:format>image/svg+xml</dc:format><dc:type
           rdf:resource="http://purl.org/dc/dcmitype/StillImage" /></cc:Work></rdf:RDF></metadata><defs
     id="defs6" /><sodipodi:namedview
     pagecolor="#ffffff"
     bordercolor="#666666"
     borderopacity="1"
     objecttolerance="10"
     gridtolerance="10"
     guidetolerance="10"
     inkscape:pageopacity="0"
     inkscape:pageshadow="2"
     inkscape:window-width="640"
     inkscape:window-height="480"
     id="namedview4" /><g
     id="g10"
     inkscape:groupmode="layer"
     inkscape:label="ink_ext_XXXXXX"
     transform="matrix(1.3333333,0,0,-1.3333333,0,324.33333)"><g
       id="g12"
       transform="scale(0.1)"><path
         d="M 0,772.391 1528.69,2428.11 h 998.69 L 981.168,772.391 H 0"
         style="fill:#f47216;fill-opacity:1;fill-rule:nonzero;stroke:none"
         id="path14" /><path
         d="M 2595.12,1928.77 H 2111.26 V 1290.8 h 483.86 V 768.012 h 571.77 V 1290.8 H 3650 v 637.97 h -483.11 v 503.72 h -571.77 v -503.72"
         style="fill:#f47216;fill-opacity:1;fill-rule:nonzero;stroke:none"
         id="path16" /><path
         d="M 296.648,269.441 H 550.375 V 126.859 H 302.781 c -52.039,36.879 -51.426,96.282 -6.133,142.582 z m 532.747,374.84 V 0 h 142.191 v 523.16 h 158.294 c 13.94,-3.109 66.03,-8.719 80.48,-64.769 V 0 h 139.13 v 461.461 c -3.16,108.969 -94.2,186.059 -151.78,182.82 z m 647.335,0 V 0 h 139.13 v 644.281 z m -1323.421,0 v -121.5 h 319.644 c 75.11,-4.679 77.926,-97.351 77.422,-140.281 H 241.074 C 80.7109,352.18 61.5352,60.75 232.262,0 h 464.136 v 439.609 c -3.625,138.782 -93.402,200.012 -140.277,204.672 z m 2744.971,0 C 2699.7,599.789 2687.24,382.449 2684.69,327.262 2676.25,16.5586 2895.88,0.53125 2898.28,0 h 294.35 v 132.988 h -294.35 c -47.08,10.891 -83.98,67.34 -77.64,128.782 h 347.08 v 126.871 h -347.08 c -3.65,44.07 27.44,120.281 77.64,128.39 96.97,0 165.22,0 294.35,0 v 127.25 z m -1130.65,0 V 0 h 142.58 v 523.16 h 188.95 V 0 h 148.71 v 523.16 h 123.8 c 72.19,-13.051 80.77,-62.34 83.55,-98.879 V 0 h 145.64 v 495.57 c -23.48,83.91 -92.83,126.989 -145.64,148.711 z m -290.9,218.071 V 727.828 l 139.13,1.91 v 132.614 h -139.13"
         style="fill:#f47216;fill-opacity:1;fill-rule:nonzero;stroke:none"
         id="path18" /></g></g></svg>
